<?xml version="1.0" standalone="no"?>
<!DOCTYPE svg PUBLIC "-//W3C//DTD SVG 20010904//EN"
 "http://www.w3.org/TR/2001/REC-SVG-20010904/DTD/svg10.dtd">
<svg version="1.0" xmlns="http://www.w3.org/2000/svg"
 width="1000.000000pt" height="1000.000000pt" viewBox="0 0 1000.000000 1000.000000"
 preserveAspectRatio="xMidYMid meet">
<metadata>
Created by potrace 1.11, written by Peter Selinger 2001-2013
</metadata>
<g transform="translate(0.000000,1000.000000) scale(0.100000,-0.100000)"
fill="#000000" stroke="none">
<path d="M3000 9984 c-266 -36 -535 -119 -753 -231 -99 -51 -157 -108 -181
-180 -21 -62 -20 -101 4 -166 33 -88 118 -156 197 -157 49 0 369 -118 508
-187 61 -31 215 -132 215 -141 0 -4 -26 -22 -58 -41 -172 -104 -521 -346 -562
-391 -3 -3 -45 -39 -95 -80 -104 -86 -434 -412 -521 -515 -32 -38 -61 -72 -64
-75 -18 -16 -166 -208 -227 -294 -181 -254 -379 -613 -487 -881 -72 -179 -143
-400 -186 -580 -45 -189 -68 -320 -105 -590 -2 -16 -7 -64 -10 -105 -4 -41 -8
-91 -11 -110 -25 -210 -25 -942 0 -1220 3 -25 7 -83 11 -130 4 -47 8 -98 10
-115 2 -16 6 -61 10 -100 18 -203 73 -599 112 -815 20 -109 26 -179 27 -280 0
-217 -33 -317 -248 -750 -79 -157 -147 -298 -154 -315 -6 -16 -27 -73 -47
-125 -43 -113 -87 -279 -109 -410 -45 -272 -40 -559 15 -769 26 -96 39 -121
94 -169 54 -47 116 -67 189 -59 119 12 190 80 235 222 66 208 180 413 296 530
66 67 84 78 276 173 228 113 329 178 426 273 67 66 174 217 195 276 11 31 15
33 58 34 71 0 129 9 208 30 79 21 105 32 292 121 284 136 441 180 730 203 123
10 159 15 188 27 128 56 191 213 135 339 -41 92 -260 277 -471 397 -277 159
-514 216 -921 221 -254 3 -262 7 -294 161 -34 160 -40 230 -34 383 24 606 334
1462 674 1863 169 200 479 403 823 541 149 60 319 117 327 110 14 -15 23 -485
10 -581 -24 -195 -127 -459 -252 -650 -41 -63 -57 -120 -51 -185 10 -101 84
-188 183 -217 100 -29 161 -8 413 144 295 177 721 492 871 644 215 217 389
508 496 826 l48 144 85 -7 c47 -3 101 -8 120 -10 19 -2 91 -7 160 -10 69 -4
150 -9 180 -11 98 -7 513 -7 580 0 231 25 378 51 685 122 405 94 423 98 545
98 150 0 207 -10 645 -115 147 -35 445 -100 528 -114 255 -44 447 -36 562 22
171 87 258 270 223 466 -35 194 -270 397 -745 646 l-121 64 0 141 c1 77 -4
170 -11 206 -52 273 -288 573 -681 862 -216 160 -504 331 -794 472 -501 244
-888 359 -1616 481 -19 3 -57 10 -85 15 -592 116 -701 147 -1200 345 -390 155
-643 229 -931 274 -140 22 -418 24 -564 5z"/>
</g>
</svg>
